# xmcd
#
# Track frame offsets:
#       150
#       18391
#       39663
#       67571
#       92913
#       113590
#       160757
#       183258
#       205822
#       224877
#       254288
#       276188
#       303117
#       323481
#
# Disc length: 4635 seconds
#
# Revision: 0
# Processed by: cddbd v1.5.2PL0 Copyright (c) Steve Scherf et al.
# Submitted via: WaveLab 6.10
#
DISCID=b812190e
DTITLE=TONY MOUZAYEK - COLETANEA BELLY DANCE ORIENT
DYEAR=1900
DGENRE=
TTITLE0=YA HABIBI ALBI MAL
TTITLE1=TAMALI MAAK
TTITLE2=WALA ALA BALOU
TTITLE3=FAKAROUNI
TTITLE4=SANA WARA SANA
TTITLE5=INTA OMRI
TTITLE6=YA HELWE YA ZEIN
TTITLE7=BASTANAK
TTITLE8=FALAHI (SOLO DERBAK)
TTITLE9=ALF LEILA
TTITLE10=FENOU
TTITLE11=MAOUL
TTITLE12=AZEZ ALAYA
TTITLE13=KHIDNI MAAK
EXTD=
EXTT0=
EXTT1=
EXTT2=
EXTT3=
EXTT4=
EXTT5=
EXTT6=
EXTT7=
EXTT8=
EXTT9=
EXTT10=
EXTT11=
EXTT12=
EXTT13=
PLAYORDER=
